<?xml version="1.0" encoding="iso-8859-1"?><!-- Generator: Adobe Illustrator 19.1.1, SVG Export Plug-In . SVG Version: 6.00 Build 0)  --><svg fill="#FFFFFF" xmlns="http://www.w3.org/2000/svg" xmlns:xlink="http://www.w3.org/1999/xlink" viewBox="0 0 50 50" width="50px" height="50px"><circle cx="24.48" cy="14.5" r="1.5"/><circle cx="24.459" cy="14.5" r="1.5"/><polyline style="fill:none;stroke:#000000;stroke-width:2;stroke-linecap:round;stroke-linejoin:round;stroke-miterlimit:10;" points="19.959,42 20.959,45 22.959,45 23.959,42 "/><polyline style="fill:none;stroke:#000000;stroke-width:2;stroke-linecap:round;stroke-linejoin:round;stroke-miterlimit:10;" points="25.959,42 26.959,45 28.959,45 29.959,42 "/><path style="fill:#231F20;" d="M19.959,48h4c0-1.105-0.895-2-2-2C20.855,46,19.959,46.895,19.959,48z"/><path style="fill:#231F20;" d="M25.959,48h4c0-1.105-0.895-2-2-2C26.855,46,25.959,46.895,25.959,48z"/><path style="fill:none;stroke:#000000;stroke-width:2;stroke-linecap:round;stroke-linejoin:round;stroke-miterlimit:10;" d="M10.959,45c-1.25-1.25-1-5-1-5"/><path style="fill:none;stroke:#000000;stroke-width:2;stroke-linecap:round;stroke-linejoin:round;stroke-miterlimit:10;" d="M9.959,39c0,0,0.25,2.917,3,6"/><path style="fill:none;stroke:#000000;stroke-width:2;stroke-linecap:round;stroke-linejoin:round;stroke-miterlimit:10;" d="M13.959,43c0,0-3.438,0.063-4-3"/><path style="fill:none;stroke:#000000;stroke-width:2;stroke-linecap:round;stroke-linejoin:round;stroke-miterlimit:10;" d="M38.959,45c1.25-1.25,1-5,1-5"/><path style="fill:none;stroke:#000000;stroke-width:2;stroke-linecap:round;stroke-linejoin:round;stroke-miterlimit:10;" d="M39.959,39c0,0-0.25,2.917-3,6"/><path style="fill:none;stroke:#000000;stroke-width:2;stroke-linecap:round;stroke-linejoin:round;stroke-miterlimit:10;" d="M35.959,43c0,0,3.438,0.063,4-3"/><g><path d="M20.078,13c0.456-2.292,2.476-4,4.901-4s4.445,1.708,4.901,4c0.034-0.004,7.024,0,7.024,0C36.361,6.882,31.229,2.083,24.969,2.083S13.577,6.882,13.034,13C13.034,13,20.044,12.996,20.078,13z"/><path d="M29.98,15c-0.035,0-0.065-0.016-0.099-0.02C29.425,17.272,27.405,19,24.98,19s-4.445-1.728-4.901-4.02C20.044,14.984,20.015,15,19.98,15H13v8.567c4.657,4.077,6.581,5.713,7.402,6.433h9.014l7.544-6.377l0-8.623H29.98z M29.605,24.781C29.448,24.905,27.993,26,24.98,26s-4.469-1.095-4.625-1.219c-0.431-0.346-0.501-0.975-0.156-1.406c0.343-0.426,0.964-0.5,1.395-0.165C21.637,23.242,22.712,24,24.98,24c2.305,0,3.377-0.782,3.388-0.791c0.437-0.327,1.063-0.248,1.396,0.185C30.098,23.825,30.03,24.439,29.605,24.781z"/></g><path d="M37.412,26.108c-0.051-0.026-0.107-0.031-0.16-0.048L31,31.403v5.68c0,0.547,0.399,0.992,0.944,1c0.033,0,0.074,0.001,0.123,0.001c0.449,0,1.519-0.039,2.573-0.299C33.941,39.703,32.116,41,29.959,41h-10c-2.157,0-3.982-1.297-4.682-3.214c1.054,0.26,2.124,0.299,2.573,0.299c0.049,0,0.09-0.001,0.123-0.001c0.546-0.008,0.985-0.453,0.985-1v-5.606c-1.077-0.943-3.201-2.815-5.017-4.408c0.001-0.008-0.002-0.015-0.002-0.023l-1.166-1.019c-0.091,0.017-0.182,0.037-0.268,0.081C11.649,26.528,9,28.754,9,40c0,0.553,0.406,1,0.959,1s1-0.447,1-1c0-7.866,1.352-10.713,2.041-11.661v7.744C13,39.943,16.1,43,19.959,43h10c3.859,0,7-3.057,7-6.917v-7.709c0.699,0.983,2,3.849,2,11.626c0,0.553,0.447,1,1,1s1-0.447,1-1C40.959,28.76,38.273,26.53,37.412,26.108z"/></svg>